<?xml version="1.0" encoding="UTF-8" standalone="no"?>
<!DOCTYPE svg PUBLIC "-//W3C//DTD SVG 1.1//EN"
 "http://www.w3.org/Graphics/SVG/1.1/DTD/svg11.dtd">
<!-- Generated by graphviz version 2.40.1 (20161225.0304)
 -->
<!-- Title: %3 Pages: 1 -->
<svg width="447pt" height="332pt"
 viewBox="0.00 0.00 447.14 332.00" xmlns="http://www.w3.org/2000/svg" xmlns:xlink="http://www.w3.org/1999/xlink">
<g id="graph0" class="graph" transform="scale(1 1) rotate(0) translate(4 328)">
<title>%3</title>
<polygon fill="#ffffff" stroke="transparent" points="-4,4 -4,-328 443.1396,-328 443.1396,4 -4,4"/>
<!-- 去除低质量序列 -->
<g id="node1" class="node">
<title>去除低质量序列</title>
<path fill="#9f79ee" stroke="#3cb371" d="M219.7491,-252C219.7491,-252 117.1149,-252 117.1149,-252 111.1149,-252 105.1149,-246 105.1149,-240 105.1149,-240 105.1149,-228 105.1149,-228 105.1149,-222 111.1149,-216 117.1149,-216 117.1149,-216 219.7491,-216 219.7491,-216 225.7491,-216 231.7491,-222 231.7491,-228 231.7491,-228 231.7491,-240 231.7491,-240 231.7491,-246 225.7491,-252 219.7491,-252"/>
<text text-anchor="middle" x="168.432" y="-229.8" font-family="Times,serif" font-size="14.00" fill="#000000">去除低质量序列</text>
</g>
<!-- 比对到基因组 -->
<g id="node2" class="node">
<title>比对到基因组</title>
<path fill="#9f79ee" stroke="#3cb371" d="M150.9277,-180C150.9277,-180 77.9363,-180 77.9363,-180 71.9363,-180 65.9363,-174 65.9363,-168 65.9363,-168 65.9363,-156 65.9363,-156 65.9363,-150 71.9363,-144 77.9363,-144 77.9363,-144 150.9277,-144 150.9277,-144 156.9277,-144 162.9277,-150 162.9277,-156 162.9277,-156 162.9277,-168 162.9277,-168 162.9277,-174 156.9277,-180 150.9277,-180"/>
<text text-anchor="middle" x="114.432" y="-157.8" font-family="Times,serif" font-size="14.00" fill="#000000">比对到基因组</text>
</g>
<!-- 去除低质量序列&#45;&gt;比对到基因组 -->
<g id="edge1" class="edge">
<title>去除低质量序列&#45;&gt;比对到基因组</title>
<path fill="none" stroke="#836fff" d="M154.8055,-215.8314C148.586,-207.5386 141.0998,-197.557 134.272,-188.4533"/>
<polygon fill="#836fff" stroke="#836fff" points="137.042,-186.3133 128.242,-180.4133 131.442,-190.5133 137.042,-186.3133"/>
</g>
<!-- 表达定量 -->
<g id="node3" class="node">
<title>表达定量</title>
<path fill="#9f79ee" stroke="#3cb371" d="M264.0877,-180C264.0877,-180 204.7763,-180 204.7763,-180 198.7763,-180 192.7763,-174 192.7763,-168 192.7763,-168 192.7763,-156 192.7763,-156 192.7763,-150 198.7763,-144 204.7763,-144 204.7763,-144 264.0877,-144 264.0877,-144 270.0877,-144 276.0877,-150 276.0877,-156 276.0877,-156 276.0877,-168 276.0877,-168 276.0877,-174 270.0877,-180 264.0877,-180"/>
<text text-anchor="middle" x="234.432" y="-157.8" font-family="Times,serif" font-size="14.00" fill="#000000">表达定量</text>
</g>
<!-- 去除低质量序列&#45;&gt;表达定量 -->
<g id="edge2" class="edge">
<title>去除低质量序列&#45;&gt;表达定量</title>
<path fill="none" stroke="#836fff" d="M185.0866,-215.8314C192.8434,-207.3694 202.2122,-197.1489 210.693,-187.8971"/>
<polygon fill="#836fff" stroke="#836fff" points="213.3759,-190.1499 217.5532,-180.4133 208.2158,-185.4198 213.3759,-190.1499"/>
</g>
<!-- 基于比对结果的质量统计 -->
<g id="node5" class="node">
<title>基于比对结果的质量统计</title>
<path fill="#9f79ee" stroke="#3cb371" d="M168.7961,-108C168.7961,-108 12.0679,-108 12.0679,-108 6.0679,-108 .0679,-102 .0679,-96 .0679,-96 .0679,-84 .0679,-84 .0679,-78 6.0679,-72 12.0679,-72 12.0679,-72 168.7961,-72 168.7961,-72 174.7961,-72 180.7961,-78 180.7961,-84 180.7961,-84 180.7961,-96 180.7961,-96 180.7961,-102 174.7961,-108 168.7961,-108"/>
<text text-anchor="middle" x="90.432" y="-85.8" font-family="Times,serif" font-size="14.00" fill="#000000">基于比对结果的质量统计</text>
</g>
<!-- 比对到基因组&#45;&gt;基于比对结果的质量统计 -->
<g id="edge3" class="edge">
<title>比对到基因组&#45;&gt;基于比对结果的质量统计</title>
<path fill="none" stroke="#836fff" d="M108.3758,-143.8314C105.7808,-136.0463 102.6896,-126.7729 99.8102,-118.1347"/>
<polygon fill="#836fff" stroke="#836fff" points="103.0525,-116.7933 96.5698,-108.4133 96.4117,-119.0069 103.0525,-116.7933"/>
</g>
<!-- 差异基因分析 -->
<g id="node6" class="node">
<title>差异基因分析</title>
<path fill="#9f79ee" stroke="#3cb371" d="M284.3279,-108C284.3279,-108 210.5361,-108 210.5361,-108 204.5361,-108 198.5361,-102 198.5361,-96 198.5361,-96 198.5361,-84 198.5361,-84 198.5361,-78 204.5361,-72 210.5361,-72 210.5361,-72 284.3279,-72 284.3279,-72 290.3279,-72 296.3279,-78 296.3279,-84 296.3279,-84 296.3279,-96 296.3279,-96 296.3279,-102 290.3279,-108 284.3279,-108"/>
<text text-anchor="middle" x="247.432" y="-85.8" font-family="Times,serif" font-size="14.00" fill="#000000">差异基因分析</text>
</g>
<!-- 表达定量&#45;&gt;差异基因分析 -->
<g id="edge4" class="edge">
<title>表达定量&#45;&gt;差异基因分析</title>
<path fill="none" stroke="#836fff" d="M237.7124,-143.8314C239.1028,-136.131 240.7561,-126.9743 242.3012,-118.4166"/>
<polygon fill="#836fff" stroke="#836fff" points="245.7748,-118.8761 244.1074,-108.4133 238.8862,-117.6322 245.7748,-118.8761"/>
</g>
<!-- 对原始数据进行质量统计 -->
<g id="node4" class="node">
<title>对原始数据进行质量统计</title>
<path fill="#9f79ee" stroke="#3cb371" d="M427.3477,-252C427.3477,-252 261.5163,-252 261.5163,-252 255.5163,-252 249.5163,-246 249.5163,-240 249.5163,-240 249.5163,-228 249.5163,-228 249.5163,-222 255.5163,-216 261.5163,-216 261.5163,-216 427.3477,-216 427.3477,-216 433.3477,-216 439.3477,-222 439.3477,-228 439.3477,-228 439.3477,-240 439.3477,-240 439.3477,-246 433.3477,-252 427.3477,-252"/>
<text text-anchor="middle" x="344.432" y="-229.8" font-family="Times,serif" font-size="14.00" fill="#000000">对原始数据进行质量统计</text>
</g>
<!-- GO富集分析 -->
<g id="node7" class="node">
<title>GO富集分析</title>
<path fill="#9f79ee" stroke="#3cb371" d="M222.0345,-36C222.0345,-36 156.8295,-36 156.8295,-36 150.8295,-36 144.8295,-30 144.8295,-24 144.8295,-24 144.8295,-12 144.8295,-12 144.8295,-6 150.8295,0 156.8295,0 156.8295,0 222.0345,0 222.0345,0 228.0345,0 234.0345,-6 234.0345,-12 234.0345,-12 234.0345,-24 234.0345,-24 234.0345,-30 228.0345,-36 222.0345,-36"/>
<text text-anchor="middle" x="189.432" y="-13.8" font-family="Times,serif" font-size="14.00" fill="#000000">GO富集分析</text>
</g>
<!-- 差异基因分析&#45;&gt;GO富集分析 -->
<g id="edge5" class="edge">
<title>差异基因分析&#45;&gt;GO富集分析</title>
<path fill="none" stroke="#836fff" d="M232.7962,-71.8314C226.1159,-63.5386 218.0752,-53.557 210.7416,-44.4533"/>
<polygon fill="#836fff" stroke="#836fff" points="213.2639,-42.0052 204.2649,-36.4133 207.8126,-46.3965 213.2639,-42.0052"/>
</g>
<!-- KEGG富集分析 -->
<g id="node8" class="node">
<title>KEGG富集分析</title>
<path fill="#9f79ee" stroke="#3cb371" d="M347.1939,-36C347.1939,-36 263.6701,-36 263.6701,-36 257.6701,-36 251.6701,-30 251.6701,-24 251.6701,-24 251.6701,-12 251.6701,-12 251.6701,-6 257.6701,0 263.6701,0 263.6701,0 347.1939,0 347.1939,0 353.1939,0 359.1939,-6 359.1939,-12 359.1939,-12 359.1939,-24 359.1939,-24 359.1939,-30 353.1939,-36 347.1939,-36"/>
<text text-anchor="middle" x="305.432" y="-13.8" font-family="Times,serif" font-size="14.00" fill="#000000">KEGG富集分析</text>
</g>
<!-- 差异基因分析&#45;&gt;KEGG富集分析 -->
<g id="edge6" class="edge">
<title>差异基因分析&#45;&gt;KEGG富集分析</title>
<path fill="none" stroke="#836fff" d="M262.0678,-71.8314C268.7481,-63.5386 276.7888,-53.557 284.1224,-44.4533"/>
<polygon fill="#836fff" stroke="#836fff" points="287.0514,-46.3965 290.5991,-36.4133 281.6001,-42.0052 287.0514,-46.3965"/>
</g>
<!-- Input -->
<g id="node9" class="node">
<title>Input</title>
<ellipse fill="none" stroke="#000000" cx="256.432" cy="-306" rx="31.341" ry="18"/>
<text text-anchor="middle" x="256.432" y="-301.8" font-family="Times,serif" font-size="14.00" fill="#000000">Input</text>
</g>
<!-- Input&#45;&gt;去除低质量序列 -->
<g id="edge7" class="edge">
<title>Input&#45;&gt;去除低质量序列</title>
<path fill="none" stroke="#00ff00" d="M238.1983,-291.0816C226.7751,-281.7353 211.7745,-269.462 198.6108,-258.6917"/>
<polygon fill="#00ff00" stroke="#00ff00" points="200.6562,-255.8431 190.7003,-252.2195 196.2236,-261.2608 200.6562,-255.8431"/>
</g>
<!-- Input&#45;&gt;对原始数据进行质量统计 -->
<g id="edge8" class="edge">
<title>Input&#45;&gt;对原始数据进行质量统计</title>
<path fill="none" stroke="#00ff00" d="M274.6657,-291.0816C286.0889,-281.7353 301.0895,-269.462 314.2532,-258.6917"/>
<polygon fill="#00ff00" stroke="#00ff00" points="316.6404,-261.2608 322.1637,-252.2195 312.2078,-255.8431 316.6404,-261.2608"/>
</g>
</g>
</svg>
